Coordinates
version=1
nRows=20
nColumns=34
inDegrees=yes

Units are S.I. units (second, meters, Newtons, ...)
If the header above contains a line with 'inDegrees', this indicates whether rotational values are in degrees (yes) or radians (no).

endheader
time	pelvis_tilt	pelvis_list	pelvis_rotation	pelvis_tx	pelvis_ty	pelvis_tz	hip_flexion_r	hip_adduction_r	hip_rotation_r	knee_angle_r	ankle_angle_r	subtalar_angle_r	mtp_angle_r	hip_flexion_l	hip_adduction_l	hip_rotation_l	knee_angle_l	ankle_angle_l	subtalar_angle_l	mtp_angle_l	lumbar_extension	lumbar_bending	lumbar_rotation	arm_flex_r	arm_add_r	arm_rot_r	elbow_flex_r	pro_sup_r	arm_flex_l	arm_add_l	arm_rot_l	elbow_flex_l	pro_sup_l
      2.95000000	      5.18089665	      0.10882411	    -25.50117256	      0.30148677	      1.00051991	      0.15375408	     -1.79737857	     -5.49206358	    -17.60263960	      2.75399104	      9.96914973	     -1.77205930	      0.00000000	      3.37948897	     -4.99876302	    -16.73878305	      6.94983556	     11.93066162	      0.37605438	      0.00000000	    -11.64478973	     -0.67148694	      4.91486737	     14.97952265	    -14.84420864	     29.96881019	     20.66988066	    119.74817918	      9.81315489	    -12.92839047	     30.19142877	     18.61579040	    118.99617872
      2.96666670	      5.10798241	      0.08275073	    -25.34444556	      0.30112835	      1.00037850	      0.15263599	     -1.82558554	     -5.40626268	    -17.25552384	      2.51003403	      9.37772376	     -2.57773455	      0.00000000	      3.54337934	     -4.90696954	    -15.29836932	      6.92658437	     11.34501218	     -1.53282546	      0.00000000	    -11.66919680	     -0.58544289	      4.54447283	     15.12612431	    -14.59617041	     28.65839785	     21.37911412	    119.74817918	      9.31573767	    -12.38858304	     26.12199391	     19.69936740	    118.10237456
      2.98333330	      5.11760991	      0.06495213	    -25.35187217	      0.30107131	      1.00042713	      0.15230445	     -1.83832353	     -5.40575152	    -17.25554446	      2.50231520	      9.37764680	     -2.57628096	      0.00000000	      3.53686265	     -4.89608314	    -15.29370891	      6.93523704	     11.33932486	     -1.53090844	      0.00000000	    -11.59552351	     -0.61245577	      4.55790667	     15.27698363	    -14.33136035	     28.68317833	     21.51419498	    119.74817918	      9.41620679	    -12.10820693	     26.15578114	     19.83022761	    118.11376659
      3.00000000	      5.11091052	      0.09968691	    -25.41393950	      0.30001652	      1.00040899	      0.15178865	     -1.74397731	     -5.42884997	    -17.22710830	      2.45220280	      9.32955506	     -2.54263041	      0.00000000	      3.63248501	     -4.86020860	    -15.30428892	      6.94224077	     11.30148581	     -1.53128349	      0.00000000	    -11.66950370	     -0.70314872	      4.50081325	     15.74425727	    -14.13866810	     28.68900291	     21.83525147	    119.74817918	      9.59893925	    -11.95133383	     26.21293889	     20.10773387	    118.14489145
      3.01666670	      5.13047494	      0.09709645	    -25.41563947	      0.29979044	      1.00050368	      0.15160173	     -1.74816533	     -5.44078046	    -17.22082321	      2.45565761	      9.31572771	     -2.53719819	      0.00000000	      3.63593527	     -4.84578767	    -15.32349001	      6.95866457	     11.28627934	     -1.53763920	      0.00000000	    -11.58539855	     -0.73920104	      4.48226021	     15.94577756	    -13.87137699	     28.72406446	     22.03115359	    119.74817918	      9.72364976	    -11.70170701	     26.26686206	     20.29406992	    118.16244028
      3.03333330	      5.20035714	      0.21895252	    -25.46209172	      0.29866393	      1.00047337	      0.15112433	     -1.56963146	     -5.62514356	    -17.15670146	      2.64624991	      9.34196574	     -2.67991020	      0.00000000	      3.83837242	     -4.74254716	    -15.54716785	      7.22928951	     11.05348650	     -1.58097581	      0.00000000	    -11.72292166	     -0.92169059	      4.18640080	     16.48347139	    -13.82817458	     29.13520163	     22.89430737	    119.74817918	      9.64878527	    -11.94263990	     26.86999357	     21.44480802	    118.40269733
      3.05000000	      5.20935403	      0.21716321	    -25.46014268	      0.29851592	      1.00049509	      0.15113128	     -1.57917162	     -5.62038402	    -17.14520337	      2.62570131	      9.34347376	     -2.67436024	      0.00000000	      3.82567949	     -4.73994807	    -15.54748958	      7.19914133	     11.07834886	     -1.57902133	      0.00000000	    -11.59231615	     -0.94854134	      4.17590857	     16.71920195	    -13.61671980	     29.17416811	     23.04254487	    119.74817918	      9.80401408	    -11.71567044	     26.93301982	     21.57143886	    118.42147126
      3.06666670	      5.21869842	      0.25842138	    -25.48880602	      0.29751190	      1.00049138	      0.15069538	     -1.42619048	     -5.69290609	    -16.89999469	      2.77852686	      9.24949410	     -2.62927699	      0.00000000	      3.96845865	     -4.71587728	    -15.61008617	      7.29549403	     11.04972970	     -1.54635231	      0.00000000	    -11.65428070	     -0.99825379	      3.83204319	     17.42736023	    -13.56632939	     29.74392299	     23.41528224	    119.74817918	      9.96033060	    -11.78754826	     27.76777918	     21.96782572	    118.68749809
      3.08333330	      5.19391571	      0.28837752	    -25.55278540	      0.29725016	      1.00040235	      0.15041537	     -1.39349304	     -5.69956380	    -16.99767358	      2.64039769	      9.34979546	     -2.74786573	      0.00000000	      3.98466992	     -4.67765873	    -15.64465693	      7.25040547	     11.09219886	     -1.55672666	      0.00000000	    -11.54486073	     -0.96113026	      3.85740137	     17.81151282	    -13.52777363	     29.89947226	     23.50049913	    119.74817918	     10.22063475	    -11.60731770	     28.01923347	     22.14518956	    118.76212597
      3.10000000	      5.06229838	      0.35934281	    -25.57503090	      0.29684202	      1.00013511	      0.15020635	     -1.09952054	     -5.72866675	    -16.63640733	      2.82229629	      9.25562878	     -3.20747416	      0.00000000	      4.29145784	     -4.71804882	    -15.70921762	      7.49020967	     11.18554615	     -1.49927077	      0.00000000	    -11.28402017	     -0.93911120	      3.78780062	     18.66802631	    -13.70459767	     33.66782954	     22.93011654	    119.74817918	     10.89209760	    -12.09167469	     33.14531599	     22.21585355	    119.63182447
      3.11666670	      5.05969151	      0.36662802	    -25.57779525	      0.29700954	      1.00014399	      0.15014664	     -1.11844129	     -5.73488458	    -16.65218654	      2.79299126	      9.26810635	     -3.22125902	      0.00000000	      4.27684611	     -4.70033041	    -15.73130898	      7.47615990	     11.19516174	     -1.51052205	      0.00000000	    -11.19975442	     -0.91676664	      3.79063246	     18.84300016	    -13.58257595	     33.68052908	     23.01142666	    119.74817918	     11.08776421	    -11.88461547	     33.18006087	     22.32822471	    119.64030594
      3.13333330	      5.02118246	      0.38887614	    -25.58336689	      0.29667335	      1.00007611	      0.14968364	     -1.06570597	     -5.74218598	    -16.66479967	      2.72184774	      9.27767152	     -3.23309642	      0.00000000	      4.33425704	     -4.67500426	    -15.75972214	      7.42357830	     11.21002064	     -1.52499487	      0.00000000	    -11.23641727	     -0.90040029	      3.80696007	     19.10398320	    -13.56720137	     33.71627648	     23.04325495	    119.74817918	     11.40488529	    -11.66774597	     33.27955153	     22.50686786	    119.66726655
      3.15000000	      4.99018122	      0.40701124	    -25.55757430	      0.29609052	      1.00007232	      0.14905055	     -0.97453722	     -5.76644177	    -16.65949799	      2.73985037	      9.22473618	     -3.23896114	      0.00000000	      4.43758631	     -4.65554792	    -15.75192876	      7.44105625	     11.16779019	     -1.51875914	      0.00000000	    -11.33490370	     -0.87217275	      3.96513528	     19.31973473	    -13.57150899	     33.86487058	     22.95744035	    119.74817918	     11.79910794	    -11.52710631	     33.53060065	     22.73891637	    119.73606952
      3.16666670	      4.98610822	      0.41099175	    -25.58103467	      0.29646039	      1.00016377	      0.14908313	     -0.98261329	     -5.77966623	    -16.66316784	      2.74694455	      9.22130121	     -3.24382312	      0.00000000	      4.42014242	     -4.64890047	    -15.75401836	      7.45393534	     11.16427378	     -1.52054837	      0.00000000	    -11.28160134	     -0.84077354	      3.96374972	     19.33196145	    -13.44930682	     33.90091346	     22.98323452	    119.74817918	     11.90700656	    -11.41940719	     33.56688640	     22.80966713	    119.74542556
      3.18333330	      4.65189638	      0.52179775	    -25.86620802	      0.29530246	      0.99959409	      0.14897410	     -0.21981891	     -5.79436769	    -16.40546449	      3.22671509	      9.22122407	     -3.55801740	      0.00000000	      4.93053686	     -4.75459676	    -16.02688164	      7.65369424	     11.09108288	     -1.90286551	      0.00000000	    -11.07166198	     -0.83178010	      4.35363215	     19.92505877	    -13.47922396	     36.41200052	     22.21155595	    119.74817918	     12.55765658	    -11.82974387	     37.46067924	     23.15779916	    119.74817918
      3.20000000	      4.64533329	      0.52417762	    -25.86461800	      0.29566167	      0.99963730	      0.14890314	     -0.23301088	     -5.81138223	    -16.39421218	      3.21815540	      9.22562460	     -3.55548608	      0.00000000	      4.92255244	     -4.74608410	    -16.00922494	      7.65880884	     11.08839800	     -1.88868070	      0.00000000	    -11.06136583	     -0.81492390	      4.35168911	     19.87815062	    -13.38144661	     36.44319623	     22.23934679	    119.74817918	     12.65684425	    -11.75445986	     37.46674987	     23.19438085	    119.74817918
      3.21666670	      4.63175831	      0.52672570	    -25.83258609	      0.29559888	      0.99964616	      0.14881666	     -0.22164726	     -5.80275428	    -16.38316074	      3.20764932	      9.23207035	     -3.55426745	      0.00000000	      4.94822548	     -4.74661462	    -15.98970227	      7.64970450	     11.08994682	     -1.87516780	      0.00000000	    -11.13198005	     -0.84615571	      4.37253011	     19.79283995	    -13.26859045	     36.48765595	     22.26356628	    119.74817918	     12.72374904	    -11.65581122	     37.48198014	     23.22940345	    119.74817918
      3.23333330	      4.67415694	      0.51951002	    -25.72004389	      0.29547998	      0.99966981	      0.14909338	     -0.27180548	     -5.79249417	    -16.37543251	      3.25609553	      9.27411412	     -3.60157531	      0.00000000	      4.98809300	     -4.78356254	    -15.83713656	      7.78269214	     11.05472539	     -1.77173364	      0.00000000	    -11.23171428	     -0.99366583	      4.53117230	     19.54996940	    -13.23731612	     36.67647567	     22.32348728	    119.74817918	     13.02505335	    -11.64236038	     37.53185101	     23.18491834	    119.74817918
      3.25000000	      4.66764936	      0.52034775	    -25.74585351	      0.29542633	      0.99955780	      0.14909157	     -0.25060276	     -5.79283926	    -16.37686184	      3.25583911	      9.27836450	     -3.60790543	      0.00000000	      4.99890188	     -4.79483880	    -15.83125218	      7.79431964	     11.05626729	     -1.76965809	      0.00000000	    -11.30309488	     -1.00022884	      4.50180270	     19.48238466	    -13.19508862	     36.70130092	     22.33030590	    119.74817918	     13.01597789	    -11.57782463	     37.54944622	     23.18119227	    119.74817918
      3.26666670	      4.67081677	      0.51441232	    -25.75997154	      0.29510031	      0.99938401	      0.14909998	     -0.22469808	     -5.78485399	    -16.37417303	      3.26818399	      9.28350217	     -3.61249944	      0.00000000	      5.01808558	     -4.81903455	    -15.82558726	      7.81150073	     11.05849886	     -1.77035830	      0.00000000	    -11.40112540	     -1.02392297	      4.47632921	     19.39578184	    -13.16376039	     36.72282484	     22.32279496	    119.74817918	     12.97874240	    -11.52213773	     37.56328060	     23.15848425	    119.74817918
